<?xml version="1.0" standalone="no"?>
<!DOCTYPE svg PUBLIC "-//W3C//DTD SVG 1.1//EN" "http://www.w3.org/Graphics/SVG/1.1/DTD/svg11.dtd">
<svg width="100%" height="100%" viewBox="0 0 1812 186" version="1.1" xmlns="http://www.w3.org/2000/svg" xmlns:xlink="http://www.w3.org/1999/xlink" xml:space="preserve" style="fill-rule:evenodd;clip-rule:evenodd;stroke-linejoin:round;stroke-miterlimit:1.41421;">
    <g transform="matrix(1,0,0,1,-220,-211)">
        <g id="Layer 1">
            <g>
                <g transform="matrix(1.21337,0,0,0.222333,593.696,104.981)">
                    <g transform="matrix(0.738885,0,0,4.03243,-2.07578,-1994.2)">
                        <path d="M43.065,673.976L43.065,694.735L66.186,694.735C70.317,694.735 73.67,693.958 76.246,692.404C78.823,690.85 80.111,688.092 80.111,684.132C80.111,679.746 78.407,676.851 75.001,675.446C72.063,674.466 68.316,673.976 63.759,673.976L43.065,673.976ZM43.065,710.32L43.065,735.422L66.186,735.422C70.317,735.422 73.532,734.869 75.831,733.761C80.004,731.717 82.091,727.8 82.091,722.009C82.091,717.112 80.068,713.748 76.023,711.917C73.766,710.895 70.594,710.363 66.506,710.32L43.065,710.32ZM94.546,667.653C97.442,671.656 98.889,676.446 98.889,682.024C98.889,687.773 97.442,692.393 94.546,695.885C92.928,697.844 90.543,699.632 87.392,701.25C92.204,702.996 95.834,705.764 98.283,709.554C100.731,713.343 101.955,717.942 101.955,723.35C101.955,728.928 100.55,733.932 97.74,738.36C95.951,741.298 93.716,743.768 91.033,745.769C88.01,748.069 84.443,749.644 80.334,750.496C76.225,751.348 71.765,751.774 66.953,751.774L24.286,751.774L24.286,657.625L70.019,657.625C81.559,657.795 89.734,661.138 94.546,667.653Z" style="fill:rgb(47,47,47);fill-rule:nonzero;"/>
                    </g>
                    <g transform="matrix(0.738885,0,0,4.03243,-2.07578,-1994.2)">
                        <rect x="116.901" y="657.625" width="19.545" height="94.149" style="fill:rgb(47,47,47);fill-rule:nonzero;"/>
                    </g>
                    <g transform="matrix(0.738885,0,0,4.03243,-2.07578,-1994.2)">
                        <path d="M173.876,673.976L173.876,694.735L196.998,694.735C201.128,694.735 204.482,693.958 207.058,692.404C209.634,690.85 210.922,688.092 210.922,684.132C210.922,679.746 209.219,676.851 205.812,675.446C202.874,674.466 199.127,673.976 194.571,673.976L173.876,673.976ZM173.876,710.32L173.876,735.422L196.998,735.422C201.128,735.422 204.343,734.869 206.643,733.761C210.816,731.717 212.902,727.8 212.902,722.009C212.902,717.112 210.88,713.748 206.834,711.917C204.578,710.895 201.405,710.363 197.317,710.32L173.876,710.32ZM225.358,667.653C228.253,671.656 229.701,676.446 229.701,682.024C229.701,687.773 228.253,692.393 225.358,695.885C223.739,697.844 221.355,699.632 218.204,701.25C223.016,702.996 226.646,705.764 229.094,709.554C231.543,713.343 232.767,717.942 232.767,723.35C232.767,728.928 231.362,733.932 228.551,738.36C226.763,741.298 224.527,743.768 221.845,745.769C218.821,748.069 215.255,749.644 211.146,750.496C207.037,751.348 202.576,751.774 197.764,751.774L155.097,751.774L155.097,657.625L200.83,657.625C212.37,657.795 220.546,661.138 225.358,667.653Z" style="fill:rgb(47,47,47);fill-rule:nonzero;"/>
                    </g>
                    <g transform="matrix(0.738885,0,0,4.03243,-2.07578,-1994.2)">
                        <path d="M249.246,657.625L268.919,657.625L268.919,734.847L315.546,734.847L315.546,751.774L249.246,751.774L249.246,657.625Z" style="fill:rgb(47,47,47);fill-rule:nonzero;"/>
                    </g>
                    <g transform="matrix(0.738885,0,0,4.03243,-2.07578,-1994.2)">
                        <path d="M398.772,674.296L348.951,674.296L348.951,694.288L394.684,694.288L394.684,710.639L348.951,710.639L348.951,734.847L401.072,734.847L401.072,751.774L329.726,751.774L329.726,657.625L398.772,657.625L398.772,674.296Z" style="fill:rgb(47,47,47);fill-rule:nonzero;"/>
                    </g>
                    <g transform="matrix(0.738885,0,0,4.03243,-2.07578,-1994.2)">
                        <path d="M471.843,673.976L471.843,694.735L494.965,694.735C499.095,694.735 502.448,693.958 505.025,692.404C507.601,690.85 508.889,688.092 508.889,684.132C508.889,679.746 507.186,676.851 503.779,675.446C500.841,674.466 497.094,673.976 492.537,673.976L471.843,673.976ZM471.843,710.32L471.843,735.422L494.965,735.422C499.095,735.422 502.31,734.869 504.609,733.761C508.782,731.717 510.869,727.8 510.869,722.009C510.869,717.112 508.846,713.748 504.801,711.917C502.544,710.895 499.372,710.363 495.284,710.32L471.843,710.32ZM523.324,667.653C526.22,671.656 527.667,676.446 527.667,682.024C527.667,687.773 526.22,692.393 523.324,695.885C521.706,697.844 519.321,699.632 516.17,701.25C520.982,702.996 524.612,705.764 527.061,709.554C529.509,713.343 530.733,717.942 530.733,723.35C530.733,728.928 529.328,733.932 526.518,738.36C524.729,741.298 522.494,743.768 519.811,745.769C516.788,748.069 513.222,749.644 509.112,750.496C505.003,751.348 500.543,751.774 495.731,751.774L453.064,751.774L453.064,657.625L498.797,657.625C510.337,657.795 518.512,661.138 523.324,667.653Z" style="fill:rgb(47,47,47);fill-rule:nonzero;"/>
                    </g>
                    <g transform="matrix(0.738885,0,0,4.03243,-2.07578,-1994.2)">
                        <path d="M572.953,716.196L596.842,716.196L585.089,679.15L572.953,716.196ZM574.167,657.625L596.395,657.625L629.736,751.774L608.403,751.774L602.335,732.42L567.652,732.42L561.137,751.774L540.57,751.774L574.167,657.625Z" style="fill:rgb(47,47,47);fill-rule:nonzero;"/>
                    </g>
                    <g transform="matrix(0.738885,0,0,4.03243,-2.07578,-1994.2)">
                        <path d="M690.831,677.106C688.254,675.02 684.646,673.976 680.004,673.976L661.673,673.976L661.673,701.697L680.004,701.697C684.646,701.697 688.254,700.569 690.831,698.312C693.407,696.055 694.695,692.478 694.695,687.581C694.695,682.684 693.407,679.193 690.831,677.106ZM705.745,711.023C700.124,715.622 692.097,717.921 681.665,717.921L661.673,717.921L661.673,751.774L642.128,751.774L642.128,657.625L683.134,657.625C692.587,657.625 700.124,660.052 705.745,664.907C711.366,669.761 714.176,677.277 714.176,687.454C714.176,698.567 711.366,706.424 705.745,711.023Z" style="fill:rgb(47,47,47);fill-rule:nonzero;"/>
                    </g>
                    <g transform="matrix(0.738885,0,0,4.03243,-2.07578,-1994.2)">
                        <path d="M797.338,657.625L797.338,674.296L769.171,674.296L769.171,751.774L749.37,751.774L749.37,674.296L721.074,674.296L721.074,657.625L797.338,657.625Z" style="fill:rgb(47,47,47);fill-rule:nonzero;"/>
                    </g>
                    <g transform="matrix(0.738885,0,0,4.03243,-2.07578,-1994.2)">
                        <rect x="807.303" y="657.625" width="19.545" height="94.149" style="fill:rgb(47,47,47);fill-rule:nonzero;"/>
                    </g>
                    <g transform="matrix(0.738885,0,0,4.03243,-2.07578,-1994.2)">
                        <path d="M859.423,722.711C860.019,727.012 861.19,730.227 862.936,732.356C866.129,736.231 871.601,738.169 879.351,738.169C883.993,738.169 887.761,737.658 890.657,736.636C896.15,734.677 898.896,731.036 898.896,725.713C898.896,722.605 897.534,720.199 894.808,718.496C892.083,716.835 887.804,715.366 881.97,714.089L872.006,711.853C862.212,709.639 855.441,707.233 851.694,704.635C845.35,700.292 842.177,693.5 842.177,684.26C842.177,675.829 845.243,668.824 851.375,663.246C857.507,657.668 866.513,654.879 878.393,654.879C888.315,654.879 896.778,657.508 903.782,662.767C910.787,668.026 914.46,675.658 914.801,685.665L895.894,685.665C895.554,680.002 893.084,675.978 888.485,673.593C885.419,672.018 881.608,671.23 877.052,671.23C871.984,671.23 867.939,672.252 864.916,674.296C861.893,676.34 860.381,679.193 860.381,682.855C860.381,686.219 861.871,688.731 864.852,690.392C866.768,691.499 870.856,692.798 877.116,694.288L893.339,698.184C900.45,699.888 905.816,702.166 909.435,705.019C915.056,709.447 917.866,715.856 917.866,724.244C917.866,732.846 914.577,739.989 907.998,745.674C901.419,751.358 892.126,754.201 880.118,754.201C867.854,754.201 858.209,751.401 851.183,745.801C844.157,740.202 840.644,732.505 840.644,722.711L859.423,722.711Z" style="fill:rgb(47,47,47);fill-rule:nonzero;"/>
                    </g>
                    <g transform="matrix(0.738885,0,0,4.03243,-2.07578,-1994.2)">
                        <path d="M1000.84,657.625L1000.84,674.296L972.669,674.296L972.669,751.774L952.869,751.774L952.869,674.296L924.573,674.296L924.573,657.625L1000.84,657.625Z" style="fill:rgb(47,47,47);fill-rule:nonzero;"/>
                    </g>
                    <g transform="matrix(0.738885,0,0,4.03243,-2.07578,-1994.2)">
                        <path d="M1057.81,667.461C1065.48,659.712 1075.23,655.837 1087.07,655.837C1102.91,655.837 1114.49,661.032 1121.81,671.422C1125.86,677.255 1128.03,683.11 1128.33,688.987L1108.65,688.987C1107.38,684.473 1105.74,681.066 1103.74,678.767C1100.16,674.679 1094.86,672.635 1087.83,672.635C1080.68,672.635 1075.04,675.52 1070.91,681.29C1066.78,687.06 1064.71,695.225 1064.71,705.785C1064.71,716.345 1066.89,724.255 1071.26,729.514C1075.62,734.773 1081.17,737.402 1087.9,737.402C1094.79,737.402 1100.05,735.145 1103.67,730.632C1105.67,728.204 1107.33,724.564 1108.65,719.709L1128.14,719.709C1126.43,729.972 1122.08,738.318 1115.07,744.748C1108.07,751.177 1099.1,754.392 1088.15,754.392C1074.61,754.392 1063.96,750.049 1056.21,741.362C1048.46,732.633 1044.59,720.667 1044.59,705.466C1044.59,689.029 1049,676.361 1057.81,667.461Z" style="fill:rgb(47,47,47);fill-rule:nonzero;"/>
                    </g>
                    <g transform="matrix(0.738885,0,0,4.03243,-2.07578,-1994.2)">
                        <path d="M1143.02,751.774L1143.02,657.625L1162.5,657.625L1162.5,693.522L1199.29,693.522L1199.29,657.625L1218.84,657.625L1218.84,751.774L1199.29,751.774L1199.29,709.745L1162.5,709.745L1162.5,751.774L1143.02,751.774Z" style="fill:rgb(47,47,47);fill-rule:nonzero;"/>
                    </g>
                    <g transform="matrix(0.738885,0,0,4.03243,-2.07578,-1994.2)">
                        <path d="M1237.61,657.625L1257.61,657.625L1257.61,715.494C1257.61,721.966 1258.37,726.693 1259.9,729.674C1262.29,734.954 1267.49,737.594 1275.49,737.594C1283.45,737.594 1288.63,734.954 1291.01,729.674C1292.54,726.693 1293.31,721.966 1293.31,715.494L1293.31,657.625L1313.3,657.625L1313.3,715.494C1313.3,725.501 1311.75,733.293 1308.64,738.871C1302.85,749.091 1291.8,754.201 1275.49,754.201C1259.18,754.201 1248.11,749.091 1242.28,738.871C1239.17,733.293 1237.61,725.501 1237.61,715.494L1237.61,657.625Z" style="fill:rgb(47,47,47);fill-rule:nonzero;"/>
                    </g>
                    <g transform="matrix(0.738885,0,0,4.03243,-2.07578,-1994.2)">
                        <path d="M1351.75,673.976L1351.75,699.27L1374.05,699.27C1378.48,699.27 1381.8,698.759 1384.01,697.737C1387.93,695.949 1389.89,692.414 1389.89,687.134C1389.89,681.428 1387.99,677.596 1384.2,675.637C1382.07,674.53 1378.88,673.976 1374.62,673.976L1351.75,673.976ZM1393.94,660.052C1397.5,661.543 1400.51,663.736 1402.98,666.631C1405.02,669.016 1406.64,671.656 1407.84,674.551C1409.03,677.447 1409.62,680.747 1409.62,684.452C1409.62,688.923 1408.5,693.319 1406.24,697.641C1403.98,701.963 1400.26,705.019 1395.06,706.807C1399.4,708.553 1402.48,711.033 1404.29,714.248C1406.1,717.463 1407,722.371 1407,728.971L1407,735.294C1407,739.595 1407.17,742.512 1407.52,744.045C1408.03,746.472 1409.22,748.261 1411.09,749.41L1411.09,751.774L1389.44,751.774C1388.84,749.687 1388.42,748.005 1388.16,746.728C1387.65,744.088 1387.37,741.384 1387.33,738.616L1387.2,729.865C1387.12,723.861 1386.02,719.858 1383.91,717.857C1381.81,715.856 1377.86,714.855 1372.07,714.855L1351.75,714.855L1351.75,751.774L1332.53,751.774L1332.53,657.625L1378.71,657.625C1385.31,657.753 1390.39,658.562 1393.94,660.052Z" style="fill:rgb(47,47,47);fill-rule:nonzero;"/>
                    </g>
                    <g transform="matrix(0.738885,0,0,4.03243,-2.07578,-1994.2)">
                        <path d="M1435.68,667.461C1443.35,659.712 1453.1,655.837 1464.94,655.837C1480.78,655.837 1492.36,661.032 1499.68,671.422C1503.73,677.255 1505.9,683.11 1506.2,688.987L1486.53,688.987C1485.25,684.473 1483.61,681.066 1481.61,678.767C1478.03,674.679 1472.73,672.635 1465.7,672.635C1458.55,672.635 1452.91,675.52 1448.78,681.29C1444.65,687.06 1442.58,695.225 1442.58,705.785C1442.58,716.345 1444.76,724.255 1449.13,729.514C1453.49,734.773 1459.04,737.402 1465.77,737.402C1472.67,737.402 1477.92,735.145 1481.54,730.632C1483.55,728.204 1485.21,724.564 1486.53,719.709L1506.01,719.709C1504.3,729.972 1499.95,738.318 1492.94,744.748C1485.94,751.177 1476.97,754.392 1466.02,754.392C1452.48,754.392 1441.84,750.049 1434.09,741.362C1426.34,732.633 1422.46,720.667 1422.46,705.466C1422.46,689.029 1426.87,676.361 1435.68,667.461Z" style="fill:rgb(47,47,47);fill-rule:nonzero;"/>
                    </g>
                    <g transform="matrix(0.738885,0,0,4.03243,-2.07578,-1994.2)">
                        <path d="M1520.89,751.774L1520.89,657.625L1540.37,657.625L1540.37,693.522L1577.16,693.522L1577.16,657.625L1596.71,657.625L1596.71,751.774L1577.16,751.774L1577.16,709.745L1540.37,709.745L1540.37,751.774L1520.89,751.774Z" style="fill:rgb(47,47,47);fill-rule:nonzero;"/>
                    </g>
                </g>
                <g transform="matrix(0.299864,0,0,0.299864,222.273,210.641)">
                    <path d="M600.732,122.24L584.34,122.533L580.753,249.391L488.59,249.391L488.59,271.271L582.302,271.271C578.885,367.359 575.546,461.214 572.084,558.596C512.958,517.655 454.289,534.457 396.678,545.244C320.14,559.573 244.262,577.464 167.641,591.281C117.779,600.272 67.169,600.562 14.673,589.685C18.125,572.519 21.274,556.083 24.745,539.716C53.11,405.981 81.503,272.254 109.972,138.54C115.001,114.921 120.434,91.384 125.666,67.807C127.367,60.147 130.659,55.396 139.613,59.146C187.384,79.166 235.858,72.643 284.118,61.971C331.947,51.392 379.244,38.261 427.284,28.856C463.576,21.749 501.227,20.89 534.33,40.33C552.953,51.268 568.506,67.904 584.086,83.34C591.296,90.483 595.077,92.996 601.66,83.669C640.331,28.898 695.613,17.66 756.747,28.629C804.888,37.266 852.171,50.66 899.878,61.762C938.857,70.835 978.114,75.831 1017.96,67.768C1024.48,66.449 1031.36,65.046 1037.07,61.883C1051.07,54.144 1057.95,59.034 1060.84,73.342C1067.59,106.635 1074.13,139.971 1081.18,173.2C1110.07,309.443 1139.13,445.652 1168.09,581.882C1168.5,583.824 1168.42,585.874 1168.73,590.099C1154.87,592.089 1141.34,594.816 1127.68,595.866C1051,601.763 976.667,586.654 902.479,570.194C854.137,559.467 805.759,548.87 757.203,539.187C739.578,535.673 721.433,534.076 703.445,533.196C673.116,531.711 643.693,535.11 616.328,559.322C608.346,462.191 606.263,368.39 605.062,272.747L701.234,272.747L701.234,250.154L604.929,250.154L600.732,122.24Z" style="fill:rgb(61,149,169);"/>
                </g>
            </g>
        </g>
    </g>
</svg>
